<?xml version="1.0" encoding="UTF-8"?>
<svg width="314px" height="314px" viewBox="0 0 314 314" version="1.1" xmlns="http://www.w3.org/2000/svg" xmlns:xlink="http://www.w3.org/1999/xlink">
    <!-- Generator: Sketch 43.1 (39012) - http://www.bohemiancoding.com/sketch -->
    <title>craft</title>
    <desc>Created with Sketch.</desc>
    <defs></defs>
    <g id="Page-1" stroke="none" stroke-width="1" fill="none" fill-rule="evenodd">
        <g id="craft" fill-rule="nonzero">
            <g id="css">
                <polygon id="Shape" points="0 0 314 0 314 314 0 314"></polygon>
            </g>
            <g transform="translate(11.000000, 11.000000)">
                <g id="Adobe_Photoshop_CS6_icon">
                    <g id="Livello_1">
                        <g id="Group">
                            <g id="Layer_2_1_" fill="#FFFFFF">
                                <rect id="Rectangle-path" x="0" y="0" width="292" height="292"></rect>
                            </g>
                            <g id="Layer_2" transform="translate(20.955294, 23.016471)" fill="#466FEF">
                                <rect id="Rectangle-path" x="0.148358699" y="0.103370665" width="249.889775" height="245.559132"></rect>
                            </g>
                        </g>
                    </g>
                </g>
                <g id="Page-1" transform="translate(70.423529, 62.865882)" fill="#F9FBFD">
                    <g id="Group-3" transform="translate(0.000000, 0.135192)">
                        <g id="Fill-1-Clipped">
                            <path d="M83.0855175,165.611089 C37.3874543,165.611089 0.342297243,128.542903 0.342297243,82.8164316 C0.342297243,37.0930424 37.3874543,0.0248560881 83.0855175,0.0248560881 L83.0855175,165.611089 Z" id="Fill-1"></path>
                        </g>
                    </g>
                    <g id="Group-6" transform="translate(102.415146, 0.135192)">
                        <g id="Fill-4-Clipped">
                            <path d="M43.9625739,43.9065487 C19.7412145,43.9065487 0.106603492,24.2597318 0.106603492,0.0233149196 L43.9625739,0.0233149196 L43.9625739,43.9065487 Z" id="Fill-4"></path>
                        </g>
                    </g>
                    <g id="Group-9" transform="translate(102.415146, 121.862386)">
                        <g id="Fill-7-Clipped">
                            <path d="M0.107527618,43.8838943 C0.107527618,19.6474776 19.7421386,0.000660753478 43.963498,0.000660753478 L43.963498,43.8838943 L0.107527618,43.8838943 Z" id="Fill-7"></path>
                        </g>
                    </g>
                </g>
            </g>
        </g>
    </g>
</svg>