<svg width="192" height="192" viewBox="0 0 192 192" xmlns="http://www.w3.org/2000/svg" xmlns:xlink="http://www.w3.org/1999/xlink"><title>css</title><defs><path id="a" d="M.02 175.98H124.6V.215H.02z"/></defs><g fill="none" fill-rule="evenodd"><path fill="#000" d="M78.234 16.313v-8.1H58.92V31.89h19.314v-8.1H67.02v-7.475h11.214M105.646 8.214H86.333v8.313l8.06 7.262h-8.06v8.098h19.313v-7.884l-7.327-7.69h7.326v-8.1"/><g transform="translate(34 8)"><mask id="b" fill="#fff"><use xlink:href="#a"/></mask><path fill="#000" mask="url(#b)" d="M99.68.214H80.37v8.313l7.748 7.262h-7.748v8.098H99.68v-7.884l-7.637-7.69h7.638v-8.1"/><path fill="#0071BC" mask="url(#b)" d="M11.34 161.874L0 34.694h124.602l-11.352 127.16L62.226 176 11.34 161.874"/></g><path fill="#29ABE2" d="M96.406 173.18l41.18-11.33 9.647-108.565H96.406V173.18"/><path fill="#B3B3B3" d="M59.956 100.01l1.366 15.576 35.084-15.575v-15.6l-36.45 15.6"/><path fill="#E6E6E6" d="M135.262 67.757L96.406 84.41v15.6l37.516-16.677 1.34-15.576M96.406 140.763l-.12.018-17.4-4.672-1.137-12.423H62.09l2.185 24.475 32.007 8.862.124-.03v-16.23"/><path fill="#FFF" d="M96.406 100.01v15.576h19.05l-1.733 20.363-17.317 4.826v16.23l31.9-8.863 4.2-48.132h-36.1"/><path fill="#E6E6E6" d="M96.406 100.01h-36.45l1.366 15.576h35.084V100.01M96.406 83.333V67.757h-39.22l1.383 15.576h37.836"/><path fill="#FFF" d="M96.406 67.757v15.576h37.516l1.34-15.576H96.406"/></g></svg>