<?xml version="1.0" encoding="UTF-8"?>
<svg width="192px" height="192px" viewBox="0 0 192 192" version="1.1" xmlns="http://www.w3.org/2000/svg" xmlns:xlink="http://www.w3.org/1999/xlink">
    <!-- Generator: Sketch 41.2 (35397) - http://www.bohemiancoding.com/sketch -->
    <title>css</title>
    <desc>Created with Sketch.</desc>
    <defs>
        <polygon id="path-1" points="0.0186902655 175.98131 124.60177 175.98131 124.60177 0.21400354 0.0186902655 0.21400354"></polygon>
    </defs>
    <g id="Page-1" stroke="none" stroke-width="1" fill="none" fill-rule="evenodd">
        <g id="css">
            <g id="css3" transform="translate(34.000000, 8.000000)">
                <polyline id="Fill-1" fill="#000000" points="44.2336283 8.31311858 44.2336283 0.21400354 24.920354 0.21400354 24.920354 23.8883398 44.2336283 23.8883398 44.2336283 15.7892248 33.019469 15.7892248 33.019469 8.31311858 44.2336283 8.31311858"></polyline>
                <polyline id="Fill-2" fill="#000000" points="71.6460177 0.21400354 52.3327434 0.21400354 52.3327434 8.52743363 60.3916743 15.7892248 52.3327434 15.7892248 52.3327434 23.8883398 71.6460177 23.8883398 71.6460177 16.0038513 64.3194336 8.31311858 71.6460177 8.31311858 71.6460177 0.21400354"></polyline>
                <g id="Group-6">
                    <mask id="mask-2" fill="white">
                        <use xlink:href="#path-1"></use>
                    </mask>
                    <g id="Clip-4"></g>
                    <polyline id="Fill-3" fill="#000000" mask="url(#mask-2)" points="99.6814159 0.21400354 80.3681416 0.21400354 80.3681416 8.52743363 88.1155681 15.7892248 80.3681416 15.7892248 80.3681416 23.8883398 99.6814159 23.8883398 99.6814159 16.0038513 92.0433274 8.31311858 99.6814159 8.31311858 99.6814159 0.21400354"></polyline>
                    <polyline id="Fill-5" fill="#0071BC" mask="url(#mask-2)" points="11.3393841 161.873897 0 34.6938053 124.60177 34.6938053 113.250237 161.853027 62.2255009 176 11.3393841 161.873897"></polyline>
                </g>
                <polyline id="Fill-7" fill="#29ABE2" points="62.4055504 165.179894 103.584878 153.851412 113.233104 45.2849558 62.4055504 45.2849558 62.4055504 165.179894"></polyline>
                <polyline id="Fill-8" fill="#B3B3B3" points="25.9557947 92.0106195 27.3217416 107.585841 62.4055504 92.0106195 62.4055504 76.4101664 25.9557947 92.0106195"></polyline>
                <polyline id="Fill-9" fill="#E6E6E6" points="101.261989 59.7574513 62.4055504 76.4101664 62.4055504 92.0106195 99.9222088 75.3326726 101.261989 59.7574513"></polyline>
                <polyline id="Fill-10" fill="#E6E6E6" points="62.4055504 132.762874 62.2849982 132.780942 44.8859186 128.108375 43.7492389 115.684956 28.090223 115.684956 30.2754265 140.159858 62.2815717 149.021848 62.4055504 148.992566 62.4055504 132.762874"></polyline>
                <polyline id="Fill-11" fill="#FFFFFF" points="62.4055504 92.0106195 62.4055504 107.585841 81.454669 107.585841 79.7233274 127.949196 62.4055504 132.776269 62.4055504 149.004715 94.3054726 140.142726 98.5061097 92.0106195 62.4055504 92.0106195"></polyline>
                <polyline id="Fill-12" fill="#E6E6E6" points="62.4055504 92.0106195 25.9557947 92.0106195 27.3217416 107.585841 62.4055504 107.585841 62.4055504 92.0106195"></polyline>
                <polyline id="Fill-13" fill="#E6E6E6" points="62.4055504 75.3326726 62.4055504 59.7574513 23.1865204 59.7574513 24.5686655 75.3326726 62.4055504 75.3326726"></polyline>
                <polyline id="Fill-14" fill="#FFFFFF" points="62.4055504 59.7574513 62.4055504 75.3326726 99.9222088 75.3326726 101.261989 59.7574513 62.4055504 59.7574513"></polyline>
            </g>
        </g>
    </g>
</svg>