<?xml version="1.0" encoding="UTF-8"?>
<svg width="192px" height="192px" viewBox="0 0 192 192" version="1.1" xmlns="http://www.w3.org/2000/svg" xmlns:xlink="http://www.w3.org/1999/xlink">
    <!-- Generator: Sketch 41.2 (35397) - http://www.bohemiancoding.com/sketch -->
    <title>html</title>
    <desc>Created with Sketch.</desc>
    <defs></defs>
    <g id="Page-1" stroke="none" stroke-width="1" fill="none" fill-rule="evenodd">
        <g id="html">
            <g id="Group" transform="translate(34.000000, 8.000000)">
                <polyline id="Fill-1" fill="#D3492B" points="62.0556302 175.571776 11.3093917 161.48364 0 34.6407397 124.264993 34.6407397 112.944039 161.463513 62.0556302 175.571776"></polyline>
                <polyline id="Fill-4" fill="#E15E30" points="103.252049 153.38764 112.92691 45.0118929 62.1322822 45.0118929 62.1322822 164.787387 103.252049 153.38764"></polyline>
                <polyline id="Fill-5" fill="#EAEAE9" points="62.1322822 107.612652 62.1322822 92.0561363 41.547562 92.0561363 40.1258589 76.1249246 62.1322822 76.1249246 62.1322822 60.5684088 23.1236594 60.5684088 27.3193966 107.612652 62.1322822 107.612652"></polyline>
                <polyline id="Fill-6" fill="#EAEAE9" points="62.1322822 132.4582 62.0637664 132.476613 44.7395426 127.797839 43.6321557 115.390482 28.0152603 115.390482 30.1949197 139.815942 62.0603406 148.663903 62.1322822 148.643776 62.1322822 132.4582"></polyline>
                <polyline id="Fill-7" fill="#1A1918" points="11.5620438 0.17043309 19.4674842 0.17043309 19.4674842 7.98037956 26.6989002 7.98037956 26.6989002 0.17043309 34.6060535 0.17043309 34.6060535 23.8229489 26.6989002 23.8229489 26.6989002 15.9025207 19.4674842 15.9025207 19.4674842 23.8229489 11.5620438 23.8229489 11.5620438 0.17043309"></polyline>
                <polyline id="Fill-8" fill="#1A1918" points="45.0020438 8.01378102 38.0416934 8.01378102 38.0416934 0.17043309 59.8708321 0.17043309 59.8708321 8.01378102 52.9074842 8.01378102 52.9074842 23.8229489 45.0020438 23.8229489 45.0020438 8.01378102"></polyline>
                <polyline id="Fill-9" fill="#1A1918" points="63.335163 0.17043309 71.578472 0.17043309 76.6503552 8.48054501 81.7153869 0.17043309 89.9621217 0.17043309 89.9621217 23.8229489 82.0883698 23.8229489 82.0883698 12.1003212 76.6503552 20.5093528 76.5128954 20.5093528 71.0697421 12.1003212 71.0697421 23.8229489 63.335163 23.8229489 63.335163 0.17043309"></polyline>
                <polyline id="Fill-10" fill="#1A1918" points="93.8962141 0.17043309 101.80508 0.17043309 101.80508 16.0048662 112.9222 16.0048662 112.9222 23.8229489 93.8962141 23.8229489 93.8962141 0.17043309"></polyline>
                <polyline id="Fill-11" fill="#FFFFFF" points="98.240545 92.0561363 62.0787543 92.0561363 62.0787543 107.612652 81.2353479 107.612652 79.4286715 127.78799 62.0787543 132.471474 62.0787543 148.655338 93.9698686 139.815942 97.8607105 96.2330316 98.240545 92.0561363"></polyline>
                <polyline id="Fill-12" fill="#FFFFFF" points="101.048837 60.5684088 62.0787543 60.5684088 62.0787543 76.1249246 99.6553966 76.1249246 99.9667153 72.6289051 100.675854 64.7418783 101.048837 60.5684088"></polyline>
            </g>
        </g>
    </g>
</svg>