<svg width="192" height="192" viewBox="0 0 192 192" xmlns="http://www.w3.org/2000/svg"><title>html</title><g fill="none" fill-rule="evenodd"><path fill="#D3492B" d="M96.056 183.572L45.31 169.484 34 42.64h124.265l-11.32 126.824-50.89 14.108"/><path fill="#E15E30" d="M137.252 161.388l9.675-108.376H96.132v119.775l41.12-11.4"/><path fill="#EAEAE9" d="M96.132 115.613v-15.557H75.548l-1.422-15.93h22.006V68.567H57.124l4.195 47.045H96.13M96.132 140.458l-.068.02-17.324-4.68-1.108-12.408H62.015l2.18 24.426 31.865 8.848.072-.02v-16.186"/><path fill="#1A1918" d="M45.562 8.17h7.905v7.81H60.7V8.17h7.906v23.653H60.7v-7.92h-7.233v7.92h-7.905V8.17M79.002 16.014h-6.96V8.17h21.83v7.844h-6.965v15.81h-7.905v-15.81M97.335 8.17h8.243l5.072 8.31 5.065-8.31h8.247v23.653h-7.874V20.1l-5.438 8.41h-.137l-5.443-8.41v11.723h-7.735V8.17M127.896 8.17h7.91v15.835h11.116v7.818h-19.026V8.17"/><path fill="#FFF" d="M132.24 100.056H96.08v15.557h19.155l-1.806 20.175-17.35 4.683v16.185l31.89-8.84 3.89-43.582.38-4.177M135.05 68.568H96.08v15.557h37.575l.312-3.496.71-7.888.372-4.174"/></g></svg>