<svg width="192" height="192" viewBox="0 0 192 192" xmlns="http://www.w3.org/2000/svg"><title>Illustrator</title><defs><radialGradient cx="39.868%" cy="33.311%" fx="39.868%" fy="33.311%" r="65.196%" id="a"><stop stop-color="#1C0A00" stop-opacity=".85" offset="0%"/><stop stop-color="#1C0A00" offset="76.7%"/></radialGradient></defs><g fill="none" fill-rule="evenodd"><path fill="url(#a)" d="M7.333 7.334h161.334v156.958H7.333" transform="translate(8 10)"/><path d="M8 10v171.626h176V10H8zm7.333 7.334h161.334v156.958H15.333V17.334z" fill="#F37021"/><path d="M69.05 107.18l-5.807 21.992c-.12.605-.363.746-1.088.746h-10.77c-.726 0-.846-.242-.726-1.09l20.81-72.94c.364-1.33.606-2.475.727-6.106 0-.484.242-.726.606-.726H88.17c.483 0 .725.12.847.726l23.352 79.168c.12.604 0 .968-.606.968h-12.1c-.604 0-.968-.14-1.088-.625l-6.05-22.112H69.052zM89.5 95.264c-2.056-8.108-6.897-25.88-8.71-34.472h-.122c-1.574 8.593-5.446 23.097-8.47 34.473H89.5zM122.496 54.5c0-4.72 3.267-7.504 7.502-7.504 4.477 0 7.502 3.026 7.502 7.504 0 4.84-3.147 7.503-7.624 7.503-4.356 0-7.38-2.663-7.38-7.503zm.822 16.673c0-.605.242-.847.847-.847h11.506c.605 0 .847.242.847.847v57.898c0 .606-.12.848-.847.848h-11.385c-.726 0-.968-.364-.968-.968V71.173z" fill="#FF7F18"/></g></svg>