<?xml version="1.0" encoding="UTF-8"?>
<svg width="192px" height="192px" viewBox="0 0 192 192" version="1.1" xmlns="http://www.w3.org/2000/svg" xmlns:xlink="http://www.w3.org/1999/xlink">
    <!-- Generator: Sketch 41.2 (35397) - http://www.bohemiancoding.com/sketch -->
    <title>Illustrator</title>
    <desc>Created with Sketch.</desc>
    <defs>
        <radialGradient cx="39.8681818%" cy="33.311215%" fx="39.8681818%" fy="33.311215%" r="65.1963636%" id="radialGradient-1">
            <stop stop-color="#1C0A00" stop-opacity="0.85" offset="0%"></stop>
            <stop stop-color="#1C0A00" offset="76.7%"></stop>
        </radialGradient>
    </defs>
    <g id="Page-1" stroke="none" stroke-width="1" fill="none" fill-rule="evenodd">
        <g id="Illustrator">
            <g id="Adobe_Illustrator_CC_icon" transform="translate(8.000000, 10.000000)">
                <g id="Group">
                    <polygon id="Shape" fill="url(#radialGradient-1)" points="7.33333333 7.33444596 168.666667 7.33444596 168.666667 164.29159 7.33333333 164.29159"></polygon>
                    <path d="M0,0 L0,171.626036 L176,171.626036 L176,0 L0,0 Z M7.33333333,7.33444596 L168.666667,7.33444596 L168.666667,164.29159 L7.33333333,164.29159 L7.33333333,7.33444596 Z" id="Shape" fill="#F37021"></path>
                    <path d="M61.0514667,97.181409 L55.2434667,119.172278 C55.1232,119.776637 54.8804667,119.918191 54.1552,119.918191 L43.384,119.918191 C42.6594667,119.918191 42.5392,119.676155 42.6594667,118.829026 L63.4714667,45.889428 C63.8344667,44.5582261 64.0764667,43.4125856 64.1974667,39.7820349 C64.1974667,39.2979615 64.4394667,39.0559247 64.8032,39.0559247 L80.1694667,39.0559247 C80.6534667,39.0559247 80.8954667,39.1769431 81.0172,39.7820349 L104.369467,118.950045 C104.490467,119.554403 104.369467,119.918191 103.764467,119.918191 L91.6644667,119.918191 C91.0602,119.918191 90.6964667,119.776637 90.5762,119.292563 L84.5262,97.181409 L61.0522,97.181409 L61.0514667,97.181409 Z M81.5012,85.2629343 C79.4442,77.1547043 74.6034667,59.3833417 72.7892,50.7910383 L72.6682,50.7910383 C71.0944667,59.3833417 67.2224667,73.8872086 64.1982,85.2629343 L81.5012,85.2629343 Z M114.495333,44.4995505 C114.495333,39.7798346 117.762333,36.9964123 121.997333,36.9964123 C126.474333,36.9964123 129.499333,40.0218713 129.499333,44.4995505 C129.499333,49.3402849 126.353333,52.0026888 121.876333,52.0026888 C117.520333,52.0026888 114.495333,49.3402849 114.495333,44.4995505 L114.495333,44.4995505 Z M115.316667,61.1729465 C115.316667,60.5678548 115.558667,60.325818 116.163667,60.325818 L127.669667,60.325818 C128.274667,60.325818 128.516667,60.5678548 128.516667,61.1729465 L128.516667,119.071063 C128.516667,119.676155 128.395667,119.918191 127.669667,119.918191 L116.284667,119.918191 C115.558667,119.918191 115.316667,119.554403 115.316667,118.950045 L115.316667,61.1729465 Z" id="Shape" fill="#FF7F18"></path>
                </g>
            </g>
        </g>
    </g>
</svg>