<svg width="192" height="192" viewBox="0 0 192 192" xmlns="http://www.w3.org/2000/svg"><title>invision</title><g fill="none" fill-rule="evenodd"><path d="M168.045 8H23.955C15.143 8 8 15.143 8 23.955v144.09C8 176.857 15.143 184 23.955 184h144.09c8.812 0 15.955-7.143 15.955-15.955V23.955C184 15.143 176.857 8 168.045 8" fill="#DC395F"/><path d="M66.82 63.375c5.85 0 10.75-4.586 10.75-10.596 0-6.007-4.9-10.592-10.75-10.592-5.852 0-10.75 4.585-10.75 10.59 0 6.01 4.898 10.597 10.75 10.597m-22.294 56.732c-.632 2.688-.95 5.59-.95 7.96 0 9.33 5.06 15.522 15.813 15.522 8.915 0 16.144-5.296 21.35-13.846L77.56 142.5H95.27l10.12-40.59c2.53-10.277 7.43-15.61 14.863-15.61 5.85 0 9.487 3.637 9.487 9.643 0 1.74-.158 3.635-.79 5.692l-5.22 18.656c-.79 2.69-1.104 5.38-1.104 7.907 0 8.857 5.216 15.335 16.126 15.335 9.327 0 16.758-6.005 20.87-20.394l-6.957-2.685c-3.48 9.64-6.483 11.382-8.855 11.382-2.372 0-3.637-1.58-3.637-4.74 0-1.423.32-3.002.792-4.904l5.06-18.175c1.265-4.268 1.74-8.053 1.74-11.53 0-13.598-8.223-20.694-18.183-20.694-9.33 0-18.817 8.415-23.56 17.27l3.478-15.894H82.463l-3.795 14h12.65l-7.79 31.185c-6.117 13.6-17.352 13.82-18.763 13.504-2.315-.523-3.796-1.402-3.796-4.41 0-1.736.315-4.23 1.106-7.236l11.86-47.042H43.893l-3.795 14h12.49l-8.063 32.94" fill="#FFF"/></g></svg>