<?xml version="1.0" encoding="UTF-8"?>
<svg width="192px" height="192px" viewBox="0 0 192 192" version="1.1" xmlns="http://www.w3.org/2000/svg" xmlns:xlink="http://www.w3.org/1999/xlink">
    <!-- Generator: Sketch 41.2 (35397) - http://www.bohemiancoding.com/sketch -->
    <title>invision</title>
    <desc>Created with Sketch.</desc>
    <defs></defs>
    <g id="Page-1" stroke="none" stroke-width="1" fill="none" fill-rule="evenodd">
        <g id="invision">
            <g transform="translate(8.000000, 8.000000)" id="Group">
                <g>
                    <path d="M160.045188,0 L15.9548125,0 C7.143125,0 0,7.143125 0,15.9548125 L0,160.045188 C0,168.856875 7.143125,176 15.9548125,176 L160.045188,176 C168.856875,176 176,168.856875 176,160.045188 L176,15.9548125 C176,7.143125 168.856875,0 160.045188,0" id="Shape" fill="#DC395F"></path>
                    <path d="M58.8190625,55.3746875 C64.6696875,55.3746875 69.570875,50.7890625 69.570875,44.7789375 C69.570875,38.7729375 64.6696875,34.188 58.8190625,34.188 C52.9684375,34.188 48.068625,38.7729375 48.068625,44.7789375 C48.068625,50.788375 52.9684375,55.3746875 58.8190625,55.3746875 M36.5261875,112.107187 C35.894375,114.795312 35.5774375,117.697937 35.5774375,120.065687 C35.5774375,129.39575 40.63675,135.589437 51.3885625,135.589437 C60.3054375,135.589437 67.5345,130.294312 72.7395625,121.743875 L69.56125,134.499062 L87.2678125,134.499062 L97.3878125,93.90975 C99.9178125,83.633 104.819,78.2986875 112.250875,78.2986875 C118.100813,78.2986875 121.737,81.9369375 121.737,87.9429375 C121.737,89.683 121.578875,91.5784375 120.946375,93.63475 L115.72825,112.291438 C114.937625,114.979562 114.62275,117.669062 114.62275,120.197 C114.62275,129.054062 119.838813,135.532375 130.74875,135.532375 C140.077438,135.532375 147.507938,129.527062 151.619188,115.138375 L144.663063,112.453 C141.184313,122.092438 138.179938,123.83525 135.808063,123.83525 C133.436188,123.83525 132.171188,122.255375 132.171188,119.094937 C132.171188,117.671813 132.488813,116.092625 132.961813,114.191 L138.0225,96.014875 C139.286813,91.746875 139.761875,87.9621875 139.761875,84.4848125 C139.761875,70.8874375 131.539375,63.7910625 121.578875,63.7910625 C112.250875,63.7910625 102.763375,72.205375 98.021,81.0610625 L101.498375,65.1660625 L74.463125,65.1660625 L70.668125,79.1663125 L83.3174375,79.1663125 L75.5280625,110.351312 C69.411375,123.948687 58.1755625,124.169375 56.7655,123.853812 C54.45,123.331312 52.969125,122.452 52.969125,119.4435 C52.969125,117.707562 53.285375,115.214 54.076,112.207562 L65.935375,65.1660625 L35.894375,65.1660625 L32.099375,79.1663125 L44.5891875,79.1663125 L36.526875,112.107187" id="Shape" fill="#FFFFFF"></path>
                </g>
            </g>
        </g>
    </g>
</svg>