<?xml version="1.0" encoding="UTF-8"?>
<svg width="192px" height="192px" viewBox="0 0 192 192" version="1.1" xmlns="http://www.w3.org/2000/svg" xmlns:xlink="http://www.w3.org/1999/xlink">
    <!-- Generator: Sketch 41.2 (35397) - http://www.bohemiancoding.com/sketch -->
    <title>js</title>
    <desc>Created with Sketch.</desc>
    <defs></defs>
    <g id="Page-1" stroke="none" stroke-width="1" fill="none" fill-rule="evenodd">
        <g id="js">
            <g id="Unofficial_JavaScript_logo_2" transform="translate(8.000000, 8.000000)">
                <g id="Group">
                    <rect id="Rectangle-path" fill="#F7DF1E" x="0" y="0" width="176" height="176"></rect>
                    <path d="M118.227302,137.500698 C121.772444,143.289143 126.384762,147.543873 134.542222,147.543873 C141.395048,147.543873 145.772698,144.118857 145.772698,139.386413 C145.772698,133.715302 141.274921,131.706667 133.732063,128.407365 L129.59746,126.633397 C117.662984,121.548952 109.734603,115.179429 109.734603,101.714032 C109.734603,89.3102222 119.185524,79.8676825 133.955556,79.8676825 C144.470857,79.8676825 152.030476,83.5273651 157.478095,93.1095873 L144.599365,101.378794 C141.76381,96.2943492 138.704762,94.2913016 133.955556,94.2913016 C129.111365,94.2913016 126.041143,97.3643175 126.041143,101.378794 C126.041143,106.340317 129.114159,108.348952 136.210032,111.421968 L140.344635,113.193143 C154.396698,119.219048 162.330667,125.362286 162.330667,139.174095 C162.330667,154.064254 150.633651,162.221714 134.924952,162.221714 C119.56546,162.221714 109.642413,154.902349 104.787048,145.308952 L118.227302,137.500698 Z M59.8036825,138.933841 C62.4017778,143.543365 64.7652063,147.440508 70.4474921,147.440508 C75.8811429,147.440508 79.3089524,145.31454 79.3089524,137.048127 L79.3089524,80.8119365 L95.8473651,80.8119365 L95.8473651,137.271619 C95.8473651,154.396698 85.8069841,162.190984 71.1514921,162.190984 C57.9095873,162.190984 50.2410159,155.338159 46.3410794,147.084317 L59.8036825,138.933841 Z" id="Shape" fill="#000000"></path>
                </g>
            </g>
        </g>
    </g>
</svg>