<svg width="192" height="192" viewBox="0 0 192 192" xmlns="http://www.w3.org/2000/svg"><title>js</title><g fill="none" fill-rule="evenodd"><path fill="#F7DF1E" d="M8 8h176v176H8z"/><path d="M126.227 145.5c3.545 5.79 8.158 10.044 16.315 10.044 6.853 0 11.23-3.425 11.23-8.158 0-5.67-4.497-7.68-12.04-10.98l-4.135-1.773c-11.934-5.084-19.862-11.454-19.862-24.92 0-12.403 9.45-21.845 24.22-21.845 10.516 0 18.075 3.66 23.523 13.242l-12.88 8.27c-2.834-5.086-5.893-7.09-10.642-7.09-4.845 0-7.915 3.074-7.915 7.09 0 4.96 3.074 6.97 10.17 10.042l4.135 1.77c14.052 6.027 21.986 12.17 21.986 25.982 0 14.89-11.696 23.048-27.405 23.048-15.36 0-25.283-7.32-30.138-16.913l13.44-7.81zm-58.423 1.434c2.598 4.61 4.96 8.507 10.643 8.507 5.434 0 8.862-2.125 8.862-10.392V88.812h16.537v56.46c0 17.125-10.04 24.92-24.696 24.92-13.24 0-20.91-6.854-24.81-15.108l13.464-8.15z" fill="#000"/></g></svg>