<svg width="192" height="192" viewBox="0 0 192 192" xmlns="http://www.w3.org/2000/svg"><title>Photoshop</title><defs><linearGradient x1="24.302%" y1="-5.222%" x2="62.635%" y2="77.151%" id="a"><stop stop-color="#A0CBFF" offset="0%"/><stop stop-color="#A0CBFE" offset="39.41%"/><stop stop-color="#8EC2FC" offset="58.3%"/><stop stop-color="#83BCFB" offset="78.38%"/><stop stop-color="#7FBAFB" offset="100%"/></linearGradient><linearGradient x1="35.621%" y1="1.409%" x2="61.386%" y2="88.477%" id="b"><stop stop-color="#090058" offset="0%"/><stop stop-color="#070033" offset="100%"/></linearGradient><linearGradient x1="-43.52%" y1="-70.06%" x2="98.016%" y2="129.94%" id="c"><stop stop-color="#A0CBFF" offset="0%"/><stop stop-color="#A0CBFE" offset="39.41%"/><stop stop-color="#8EC2FC" offset="58.3%"/><stop stop-color="#83BCFB" offset="78.38%"/><stop stop-color="#7FBAFB" offset="100%"/></linearGradient><linearGradient x1="-91.041%" y1="-153.084%" x2="85.612%" y2="105.378%" id="d"><stop stop-color="#A0CBFF" offset="0%"/><stop stop-color="#A0CBFE" offset="39.41%"/><stop stop-color="#8EC2FC" offset="58.3%"/><stop stop-color="#83BCFB" offset="78.38%"/><stop stop-color="#7FBAFB" offset="100%"/></linearGradient></defs><g fill="none" fill-rule="evenodd"><path d="M0 0h176v172.948H0z" fill="url(#a)" transform="translate(6 8)"/><path d="M.088.06h148.007v145.443H.088z" transform="translate(19.91 21.692)" fill="url(#b)"/><path d="M.084.463S11.212.17 20.372.17c9.257 0 15.857 2.176 20.288 6 4.235 3.614 7.09 9.775 7.09 16.788s-2.166 12.75-6.106 16.786c-5.12 5.207-11.09 8.288-21.272 8.715-2.813.117-5.416.145-5.416.145V71.4H.084V.464zm14.87 35.512c1.617.157 2.63.08 5.024.052 7.977-.095 12.9-4.943 12.9-12.274 0-6.586-4.06-11.994-11.717-12.274-3.052-.113-6.205 0-6.205 0v24.495z" fill="url(#c)" transform="translate(48.448 56.282)"/><path d="M53.426 55.52c2.997 1.837 10.07 4.59 14.892 4.59 4.925 0 6.96-1.735 6.96-4.44 0-2.707-1.607-5.552-7.713-7.608C56.748 44.38 52.57 39.974 52.68 33.807c0-9.962 8.352-17.43 21.31-17.43 6.107 0 10.983 1.994 14.194 3.617V31.95c-2.358-1.302-9.16-4.205-13.657-4.205-3.964 0-6.212 1.624-6.212 4.328 0 2.49 2.036 3.79 8.462 6.064 9.96 3.464 14.136 8.55 14.242 16.345 0 9.852-7.6 17.686-22.705 17.21-5.184-.162-10.926-2.21-14.89-4.372v-11.8z" fill="url(#d)" transform="translate(48.448 56.282)"/></g></svg>