<?xml version="1.0" encoding="UTF-8"?>
<svg width="192px" height="192px" viewBox="0 0 192 192" version="1.1" xmlns="http://www.w3.org/2000/svg" xmlns:xlink="http://www.w3.org/1999/xlink">
    <!-- Generator: Sketch 43.1 (39012) - http://www.bohemiancoding.com/sketch -->
    <title>react</title>
    <desc>Created with Sketch.</desc>
    <defs>
        <rect id="path-1" x="0" y="0" width="151.422093" height="151.422093" rx="27"></rect>
    </defs>
    <g id="Page-1" stroke="none" stroke-width="1" fill="none" fill-rule="evenodd">
        <g id="react">
            <g id="Group-2" transform="translate(20.000000, 20.000000)">
                <mask id="mask-2" fill="white">
                    <use xlink:href="#path-1"></use>
                </mask>
                <use id="Rectangle-13" fill="#163133" xlink:href="#path-1"></use>
                <g id="React-icon" mask="url(#mask-2)">
                    <g transform="translate(15.589744, 21.435897)" id="Layer_2_1_">
                        <g>
                            <g id="Group" fill-rule="nonzero" fill="#61DAFB">
                                <path d="M120.492803,53.628658 C120.492803,45.6518553 110.511006,38.0923008 95.2072181,33.4043952 C98.7388614,17.794406 97.1692421,5.3751378 90.2531073,1.39900847 C88.6589627,0.466336156 86.7950399,0.0245440082 84.7594399,0.0245440082 L84.7594399,5.49785784 C85.8876037,5.49785784 86.7950399,5.71875391 87.5553242,6.13600205 C90.8907651,8.0504347 92.3377579,15.3400051 91.209594,24.7158163 C90.9398157,27.022953 90.4983603,29.4528099 89.9588037,31.9317547 C85.1518447,30.7536423 79.9034303,29.845514 74.3852376,29.2564578 C71.074322,24.7158163 67.6407799,20.5924229 64.1827124,16.9844537 C72.1779605,9.5476192 79.6827026,5.47331383 84.7839652,5.47331383 L84.7839652,6.92323691e-15 L84.7839652,6.92323691e-15 C78.0395074,6.92323691e-15 69.2103991,4.81062561 60.2831896,13.1555884 C51.3559801,4.85971363 42.5268717,0.0981760329 35.782414,0.0981760329 L35.782414,5.57148987 C40.8591513,5.57148987 48.3884187,9.62125122 56.3836668,17.0089977 C52.9501246,20.6169669 49.5165825,24.7158163 46.2547175,29.2564578 C40.7119995,29.845514 35.4635851,30.7536423 30.6566261,31.9562987 C30.0925442,29.5018979 29.6756141,27.1211291 29.3813105,24.8385363 C28.2286213,15.4627252 29.6510888,8.17315474 32.9620044,6.23417809 C33.6977634,5.79238594 34.6542502,5.59603387 35.782414,5.59603387 L35.782414,0.122720041 L35.782414,0.122720041 C33.7222887,0.122720041 31.8583659,0.564512189 30.239696,1.4971845 C23.3480865,5.47331383 21.8029925,17.868038 25.3591611,33.4289392 C10.104424,38.1413888 0.171677106,45.6763993 0.171677106,53.628658 C0.171677106,61.6054606 10.1534746,69.1650152 25.4572623,73.8529207 C21.925619,89.4629099 23.4952383,101.882178 30.4113731,105.858307 C32.0055177,106.79098 33.8694405,107.232772 35.9295658,107.232772 C42.6740236,107.232772 51.5031319,102.422146 60.4303414,94.0771835 C69.3575509,102.373058 78.1866592,107.134596 84.931117,107.134596 C86.9912423,107.134596 88.8551651,106.692804 90.473835,105.760131 C97.3654445,101.784002 98.9105385,89.3892779 95.3543699,73.8283767 C110.560056,69.1404711 120.492803,61.5809166 120.492803,53.628658 Z M88.5608615,37.2578045 C87.6534254,40.4239815 86.5252616,43.6883346 85.2499459,46.9526877 C84.2444086,44.9891671 83.1898206,43.0256464 82.0371315,41.0621257 C80.9089676,39.0986051 79.7072279,37.1841724 78.5054882,35.3188278 C81.9880809,35.834252 85.3480471,36.4723962 88.5608615,37.2578045 Z M77.3282737,63.3971732 C75.4153002,66.7106143 73.4532762,69.8522474 71.4176762,72.7729844 C67.7634064,73.0920565 64.0600859,73.2638645 60.3322402,73.2638645 C56.6289198,73.2638645 52.9255993,73.0920565 49.2958548,72.7975284 C47.2602548,69.8767914 45.2737054,66.7597023 43.360732,63.4708052 C41.4968091,60.2555402 39.8045633,56.9911871 38.2594694,53.70229 C39.780038,50.4133929 41.4968091,47.1244958 43.3362067,43.9092307 C45.2491801,40.5957896 47.2112042,37.4541565 49.2468042,34.5334196 C52.901074,34.2143475 56.6043945,34.0425394 60.3322402,34.0425394 C64.0355606,34.0425394 67.7388811,34.2143475 71.3686256,34.5088756 C73.4042256,37.4296125 75.3907749,40.5467016 77.3037484,43.8355987 C79.1676713,47.0508638 80.859917,50.3152168 82.405011,53.6041139 C80.859917,56.893011 79.1676713,60.1819081 77.3282737,63.3971732 Z M85.2499459,60.2064522 C86.5743122,63.4953493 87.702476,66.7842464 88.6344374,69.9749674 C85.421623,70.7603757 82.0371315,71.4230639 78.5300135,71.9384881 C79.7317532,70.0485995 80.9334929,68.1096228 82.0616568,66.1215581 C83.1898206,64.1580375 84.2444086,62.1699728 85.2499459,60.2064522 Z M60.3812908,86.3949089 C58.1004378,84.0386841 55.8195848,81.4124753 53.5632572,78.5408263 C55.7705342,78.6390023 58.0268619,78.7126344 60.3077149,78.7126344 C62.6130932,78.7126344 64.8939462,78.6635463 67.1257485,78.5408263 C64.9184715,81.4124753 62.6376185,84.0386841 60.3812908,86.3949089 Z M42.1344669,71.9384881 C38.6518742,71.4230639 35.291908,70.7849197 32.0790936,69.9995114 C32.9865297,66.8333344 34.1146935,63.5689813 35.3900092,60.3046282 C36.3955465,62.2681488 37.4501345,64.2316695 38.6028236,66.1951902 C39.7555127,68.1587108 40.9327272,70.0731435 42.1344669,71.9384881 Z M60.2586643,20.862407 C62.5395173,23.2186318 64.8203703,25.8448407 67.0766979,28.7164896 C64.8694209,28.6183136 62.6130932,28.5446816 60.3322402,28.5446816 C58.0268619,28.5446816 55.7460089,28.5937696 53.5142065,28.7164896 C55.7214836,25.8448407 58.0023366,23.2186318 60.2586643,20.862407 Z M42.1099416,35.3188278 C40.9082019,37.2087165 39.7064621,39.1476931 38.5782983,41.1357578 C37.4501345,43.0992784 36.3955465,45.0627991 35.3900092,47.0263197 C34.0656429,43.7374226 32.9374791,40.4485255 32.0055177,37.2578045 C35.2183321,36.4969402 38.6028236,35.834252 42.1099416,35.3188278 Z M19.9145443,66.0479261 C11.2325878,62.3417809 5.6162939,57.4820672 5.6162939,53.628658 C5.6162939,49.7752487 11.2325878,44.890991 19.9145443,41.2093898 C22.0237202,40.3012615 24.3290985,39.4913092 26.7080527,38.730445 C28.1059948,43.5410706 29.9453924,48.5480483 32.2262454,53.677746 C29.9699177,58.7828997 28.1550454,63.7653333 26.7816286,68.5514149 C24.3536238,67.7905507 22.0482455,66.9560544 19.9145443,66.0479261 Z M33.1091562,101.121314 C29.7737153,99.2068812 28.3267225,91.9173108 29.4548864,82.5414996 C29.7246647,80.2343629 30.1661201,77.804506 30.7056767,75.3255612 C35.5126357,76.5036736 40.7610501,77.4118019 46.2792428,78.0008581 C49.5901584,82.5414996 53.0237005,86.664893 56.481768,90.2728622 C48.4865199,97.7096967 40.9817778,101.784002 35.8805152,101.784002 C34.7768767,101.759458 33.8449152,101.538562 33.1091562,101.121314 Z M91.2831699,82.4187796 C92.4358591,91.7945907 91.0133916,99.0841612 87.702476,101.023138 C86.966717,101.46493 86.0102302,101.661282 84.8820664,101.661282 C79.8053291,101.661282 72.2760617,97.6115207 64.2808136,90.2237742 C67.7143558,86.615805 71.1478979,82.5169556 74.4097629,77.9763141 C79.9524809,77.3872579 85.2008953,76.4791296 90.0078543,75.2764732 C90.5719362,77.755418 91.0133916,80.1361868 91.2831699,82.4187796 Z M100.725411,66.0479261 C98.6162349,66.9560544 96.3108566,67.7660067 93.9319024,68.5268709 C92.5339603,63.7162453 90.6945627,58.7092677 88.4137097,53.5795699 C90.6700374,48.4744162 92.4849097,43.4919826 93.8583265,38.705901 C96.2863313,39.4667652 98.5917096,40.3012615 100.749936,41.2093898 C109.431893,44.915535 115.048186,49.7752487 115.048186,53.628658 C115.023661,57.4820672 109.407367,62.3663249 100.725411,66.0479261 Z" id="Shape"></path>
                                <ellipse id="Oval" cx="60.3077149" cy="53.628658" rx="11.2080625" ry="11.2166118"></ellipse>
                            </g>
                        </g>
                    </g>
                </g>
            </g>
        </g>
    </g>
</svg>