<svg width="192" height="192" viewBox="0 0 192 192" xmlns="http://www.w3.org/2000/svg" xmlns:xlink="http://www.w3.org/1999/xlink"><title>sketch</title><defs><path id="a" d="M38.773 5.32L88.14.003l49.084 5.315 38.6 51.354L88 158.66.17 56.673z"/><linearGradient x1="28.754%" y1="30.615%" x2="94.109%" y2="10.649%" id="c"><stop stop-color="#FDC003" offset="0%"/><stop stop-color="#FDD12B" offset="100%"/></linearGradient></defs><g transform="translate(8 17)" fill="none" fill-rule="evenodd"><mask id="b" fill="#fff"><use xlink:href="#a"/></mask><use fill="#FEEEB7" xlink:href="#a"/><path fill="#EA6C00" mask="url(#b)" d="M140.062 56.66h35.76L88 158.64M35.938 56.66H.178L88 158.666"/><path fill="#FDAD00" mask="url(#b)" d="M35.94 56.66l104.11.028-52.047 101.97"/><path fill="url(#c)" mask="url(#b)" d="M137.222 5.313l2.844 51.345L88.14.008"/><path fill="#FDAD00" mask="url(#b)" d="M137.222 5.313l2.844 51.345h35.756M38.777 5.312l-2.844 51.345H.177"/><path fill="url(#c)" mask="url(#b)" d="M38.788 5.306L35.944 56.65 88.138.007"/><path fill="#FEEEB7" mask="url(#b)" d="M35.945 56.658h104.113L88.138.008"/></g></svg>